<?xml version="1.0" encoding="utf-8"?>
<!-- Generator: Adobe Illustrator 25.0.0, SVG Export Plug-In . SVG Version: 6.00 Build 0)  -->
<svg version="1.1" id="Layer_1" xmlns="http://www.w3.org/2000/svg" xmlns:xlink="http://www.w3.org/1999/xlink" x="0px" y="0px"
	 viewBox="0 0 563.93 223.32" style="enable-background:new 0 0 563.93 223.32;" xml:space="preserve">
<style type="text/css">
	.st0{fill:#FF8782;}
	.st1{fill:#FFBD54;}
	.st2{fill:#362169;}
</style>
<g>
	<path class="st2" d="M321.78,41.6c1.85,0,3.56,0.25,5.13,0.75c1.57,0.5,3.35,1.25,5.35,2.25v2.78c-1.58-0.78-3.26-1.44-5.06-1.98
		c-1.79-0.54-3.55-0.8-5.27-0.8c-1.51,0-2.87,0.3-4.09,0.91c-1.22,0.61-2.22,1.62-3.01,3.05c-0.29,0.93-0.5,1.71-0.65,2.35
		c-0.14,0.64-0.22,1.18-0.22,1.6c0,2.07,1.03,3.85,3.1,5.35l8.98,3.64c2,0.93,3.53,2.28,4.6,4.06c1.07,1.78,1.6,3.64,1.6,5.56
		c0,3.57-1.43,6.56-4.28,8.98c-2.21,1.36-4.74,2.03-7.59,2.03c-3.64,0-6.81-1.07-9.52-3.21l0.32-2.99c1.22,1,2.76,1.85,4.63,2.57
		c1.87,0.71,3.73,1.07,5.59,1.07c2.08,0,3.91-0.52,5.49-1.55c1.58-1.03,2.51-2.62,2.8-4.76v-1.6c0-1.5-0.43-3.01-1.28-4.55
		c-0.86-1.53-2-2.62-3.42-3.26l-8.56-3.42c-1.71-0.71-3.01-1.76-3.9-3.16c-0.89-1.39-1.34-2.9-1.34-4.54c0-2.71,1.03-5.24,3.1-7.59
		C316.36,42.78,318.86,41.6,321.78,41.6z"/>
	<path class="st2" d="M355.37,41.6h1.49c5.33,0,10.08,2.05,14.24,6.15c4.16,4.1,6.24,8.79,6.24,14.06v2.57
		c-0.79,5.21-3.16,9.41-7.11,12.62s-8.5,4.81-13.64,4.81c-1.86,0-4.01-0.32-6.47-0.96s-4.78-1.98-6.95-4.01
		c-2.18-2.03-3.78-4.39-4.81-7.06c-1.03-2.67-1.55-5.26-1.55-7.75c0-5.35,1.76-10.09,5.28-14.23
		C345.61,43.67,350.04,41.6,355.37,41.6z M354.89,44.6c-4.56,0-8.29,1.82-11.18,5.45c-2.89,3.64-4.33,7.81-4.33,12.51
		c0,1.21,0.16,2.48,0.48,3.8c0.32,1.32,0.8,2.69,1.44,4.12c3.85,6.2,9.13,9.31,15.83,9.31c3.92,0,7.56-1.14,10.91-3.42
		c1.85-1.5,3.37-3.42,4.55-5.78c1.18-2.35,1.76-5.1,1.76-8.24c0-3.71-1.03-7.15-3.1-10.32c-2.07-3.17-4.92-5.37-8.56-6.58
		c-2.07-0.57-4.14-0.86-6.2-0.86H354.89z"/>
	<path class="st2" d="M402.59,41.6h1.07c4.49,0,8.7,1.39,12.62,4.17c3.92,2.78,6.38,6.31,7.38,10.59c0.28,1.64,0.44,2.76,0.48,3.37
		c0.04,0.61,0.05,1.27,0.05,1.98c0,3.92-1.08,7.58-3.25,10.96c-2.17,3.39-5.1,5.97-8.8,7.75c-2.77,0.93-5.4,1.39-7.89,1.39
		c-3.41,0-6.69-0.86-9.81-2.57s-5.76-4.13-7.89-7.27l-0.21,30.91h-2.57V59.04c0.86-4.71,3.06-8.79,6.63-12.25
		C393.96,43.33,398.03,41.6,402.59,41.6z M406.07,44.6h-2.25c-4.79,0-8.91,1.79-12.34,5.38c-3.43,3.59-5.15,7.75-5.15,12.48
		c0,0.65,0.09,1.31,0.27,1.99c0.18,0.68,0.54,2.12,1.07,4.3c0.54,2.19,2.23,4.57,5.1,7.16c2.86,2.58,6.37,3.87,10.52,3.87h0.54
		c2.5,0,4.9-0.5,7.19-1.5c2.29-1,4.25-2.39,5.9-4.17c1.64-1.78,2.84-3.69,3.59-5.72c0.75-2.03,1.13-4.12,1.13-6.26
		c0-2.85-0.73-5.65-2.2-8.4c-1.47-2.74-3.38-4.87-5.74-6.36C411.33,45.88,408.79,44.95,406.07,44.6z"/>
	<path class="st2" d="M445.68,42.35v2.35h-0.54c-2.59,0-4.88,0.64-6.86,1.93c-1.98,1.28-3.33,3.14-4.05,5.56v29.09h-2.57V52.73
		c0-2.92,1.32-5.38,3.96-7.38c2.64-2,5.53-2.99,8.66-2.99H445.68z"/>
	<path class="st2" d="M464.73,41.6h1.49c5.33,0,10.08,2.05,14.24,6.15c4.16,4.1,6.24,8.79,6.24,14.06v2.57
		c-0.79,5.21-3.16,9.41-7.11,12.62s-8.5,4.81-13.64,4.81c-1.86,0-4.01-0.32-6.47-0.96s-4.78-1.98-6.95-4.01
		c-2.18-2.03-3.78-4.39-4.81-7.06c-1.03-2.67-1.55-5.26-1.55-7.75c0-5.35,1.76-10.09,5.28-14.23
		C454.96,43.67,459.39,41.6,464.73,41.6z M464.24,44.6c-4.56,0-8.29,1.82-11.18,5.45c-2.89,3.64-4.33,7.81-4.33,12.51
		c0,1.21,0.16,2.48,0.48,3.8c0.32,1.32,0.8,2.69,1.44,4.12c3.85,6.2,9.13,9.31,15.83,9.31c3.92,0,7.56-1.14,10.91-3.42
		c1.85-1.5,3.37-3.42,4.55-5.78c1.18-2.35,1.76-5.1,1.76-8.24c0-3.71-1.03-7.15-3.1-10.32c-2.07-3.17-4.92-5.37-8.56-6.58
		c-2.07-0.57-4.14-0.86-6.2-0.86H464.24z"/>
	<path class="st2" d="M510.26,41.82c3.35,0.43,6.22,1.98,8.61,4.65c2.39,2.67,3.58,5.72,3.58,9.15v25.67h-2.57V55.93
		c-0.43-3.14-1.73-5.81-3.9-8.02c-2.18-2.21-4.8-3.32-7.86-3.32h-1.71c-2.78,0-4.99,1.02-6.63,3.05c-1.64,2.03-2.82,4.58-3.53,7.65
		v25.99h-2.57V55.93c0-3.85,1.43-7.17,4.28-9.95c2.85-2.78,6.2-4.17,10.05-4.17H510.26z"/>
	<path class="st2" d="M531.9,28.23h0.43c0.28,0,0.64,0.09,1.07,0.27c0.43,0.18,0.75,0.3,0.96,0.37v1.18c0,0.71-0.21,1.36-0.64,1.93
		l-1.39,0.53c-0.43,0-0.84-0.18-1.23-0.53c-0.39-0.36-0.59-1-0.59-1.93l0.21-1.18L531.9,28.23z M531.58,42.67h2.78V81.6h-2.78V42.67
		z"/>
	<path class="st1" d="M20.91,92.91h15.08v30.3c4.06-2.21,8.21-3.32,12.45-3.32c5.81,0,11.11,1.8,15.91,5.41
		c4.79,3.61,7.84,8.37,9.13,14.29v5.27c0,4.44-0.81,8.46-2.41,12.07c-1.61,3.61-4.42,6.98-8.42,10.12c-4,3.15-9.18,4.72-15.52,4.72
		h-2.35c-6.44-0.65-12.03-3.3-16.76-7.97c-4.74-4.67-7.1-10.09-7.1-16.29V92.91z M49.46,133.99H47.4c-0.92,0-1.81,0.12-2.68,0.35
		c-0.87,0.23-2.04,0.58-3.51,1.04c-1.83,1.21-3.23,2.76-4.19,4.66c-0.96,1.9-1.44,3.92-1.44,6.05c0,5.75,1.76,9.07,5.29,9.95
		c3.53,0.88,5.48,1.32,5.84,1.32c3.21,0,5.96-1.17,8.25-3.52c2.29-2.35,3.44-5.16,3.44-8.45c0-1.03-0.05-2-0.14-2.89
		c-0.09-0.89-0.43-1.9-1.03-3.03c-0.6-1.13-1.63-2.21-3.09-3.24C52.67,135.21,51.11,134.46,49.46,133.99z"/>
	<path class="st1" d="M101.11,120.02l4.98-0.42c7.19,0,13.42,2.68,18.67,8.02c5.26,5.35,7.89,11.76,7.89,19.23v2.21
		c-0.92,5.9-3.6,11.16-8.02,15.77c-4.43,4.61-9.5,6.92-15.22,6.92h-3.04c-3.41,0-6.66-0.6-9.75-1.8c-3.09-1.2-6.02-2.9-8.78-5.12
		c-5.26-5.16-7.88-11.3-7.88-18.4c0-4.06,0.94-8.04,2.84-11.97c1.89-3.92,4.45-7.21,7.68-9.89
		C93.6,122.47,97.15,120.94,101.11,120.02z M94.61,146.17c0,2.31,0.94,4.87,2.84,7.68c1.89,2.81,4.77,4.22,8.65,4.22
		c2.67,0,5.14-0.85,7.4-2.56c2.26-1.71,3.76-3.94,4.5-6.71v-1.94c0-3.32-1.2-6.27-3.6-8.85c-2.4-2.58-5.21-3.87-8.44-3.87
		c-3.41,0-6.16,1.22-8.23,3.67C95.65,140.24,94.61,143.03,94.61,146.17z"/>
	<path class="st1" d="M166.81,119.88v13.42h-1.25c-1.57,0-3.02,0.21-4.36,0.62c-1.34,0.41-2.47,1.04-3.39,1.86
		c-0.37,0.74-0.67,1.4-0.9,2c-0.23,0.6-0.35,1.17-0.35,1.72v31.56h-15.35v-33.52c0.55-5.43,3.04-9.73,7.47-12.9
		c4.43-3.17,9.45-4.76,15.08-4.76H166.81z"/>
	<path class="st0" d="M173.6,119.88h30.85c2.67,0,4.77,0.9,6.29,2.7c1.52,1.8,2.28,3.94,2.28,6.43c0,1.85-0.32,3.37-0.97,4.57
		L192,157.1l21.02,0v13.97h-34.31c-2.21-0.46-3.94-1.45-5.19-2.97c-1.24-1.52-1.87-3.29-1.87-5.32c0-0.92,0.19-1.93,0.56-3.04
		s0.84-2.12,1.39-3.04l20.39-23.05l-20.41-0.06V119.88z"/>
	<path class="st0" d="M238.19,118.64h3.04c4.89,0,9.77,0.97,14.66,2.91v14.66c-1.75-1.47-3.71-2.7-5.88-3.67
		c-2.17-0.97-4.4-1.45-6.71-1.45c-2.21,0-4.29,0.6-6.23,1.79c-0.65,0.83-0.97,1.56-0.97,2.21c0,1.66,1.61,3.06,4.84,4.21
		c3.23,1.15,6.27,2.53,9.13,4.13c2.86,1.61,4.93,3.84,6.23,6.69c0.64,2.02,0.97,4.28,0.97,6.76c0,5.15-2.01,9.12-6.02,11.93
		c-4.01,2.8-8.74,4.2-14.18,4.2c-2.68,0-5.33-0.37-7.95-1.1c-2.63-0.73-4.91-1.83-6.85-3.3v-13.87c2.3,1.53,4.63,2.79,6.99,3.77
		c2.35,0.99,4.68,1.48,6.99,1.48c1.01,0,1.89-0.09,2.63-0.27c0.74-0.18,1.66-0.6,2.77-1.24c1.11-0.64,1.66-1.56,1.66-2.76v-0.69
		c-0.46-0.74-1.06-1.24-1.8-1.52l-11.62-4.55c-2.68-1.19-4.73-2.96-6.16-5.31c-1.43-2.34-2.14-4.85-2.14-7.52
		c0-4.96,1.75-9.19,5.26-12.68C230.07,120.71,233.85,119.1,238.19,118.64z"/>
	<path class="st0" d="M285.11,120.02l4.98-0.42c7.19,0,13.42,2.68,18.67,8.02c5.26,5.35,7.89,11.76,7.89,19.23v2.21
		c-0.92,5.9-3.6,11.16-8.02,15.77c-4.43,4.61-9.5,6.92-15.22,6.92h-3.04c-3.41,0-6.66-0.6-9.75-1.8c-3.09-1.2-6.02-2.9-8.78-5.12
		c-5.26-5.16-7.88-11.3-7.88-18.4c0-4.06,0.94-8.04,2.84-11.97c1.89-3.92,4.45-7.21,7.68-9.89
		C277.59,122.47,281.14,120.94,285.11,120.02z M278.61,146.17c0,2.31,0.94,4.87,2.84,7.68c1.89,2.81,4.77,4.22,8.65,4.22
		c2.67,0,5.14-0.85,7.4-2.56c2.26-1.71,3.76-3.94,4.5-6.71v-1.94c0-3.32-1.2-6.27-3.6-8.85c-2.4-2.58-5.21-3.87-8.44-3.87
		c-3.41,0-6.16,1.22-8.23,3.67C279.64,140.24,278.61,143.03,278.61,146.17z"/>
	<path class="st0" d="M342.86,119.88h3.74c5.26,0,10.07,1.68,14.46,5.04c4.38,3.36,7.08,7.7,8.09,13.04v33.11h-14.52V143.5
		c0-2.48-0.83-4.73-2.49-6.75c-1.66-2.02-3.6-3.03-5.81-3.03c-1.11,0-2.01,0.12-2.7,0.35c-0.69,0.23-1.59,0.96-2.7,2.21
		c-1.11,1.24-1.85,2.78-2.21,4.62v30.18h-14.25v-32.87c0.46-4.53,2.47-8.46,6.02-11.79C334.03,123.07,338.16,120.9,342.86,119.88z"
		/>
	<path class="st2" d="M403.73,119.88h0.69c6.09,0,11.55,2.07,16.39,6.2c4.84,4.14,7.82,9.19,8.92,15.17v36.81
		c-0.92,6.16-3.78,11.28-8.58,15.37c-4.8,4.09-10.33,6.13-16.6,6.13h-4.15c-6-0.92-11.04-3.62-15.15-8.09
		c-4.1-4.47-6.16-9.71-6.16-15.7h15.49c0,2.95,1,5.33,2.99,7.12c2,1.8,4.43,2.7,7.31,2.7c2.69,0,4.87-0.69,6.55-2.07
		c1.48-1.48,2.69-3.14,3.62-4.98v-10.51c-4.07,2.68-8.24,4.01-12.5,4.01c-6.67,0-12.61-2.64-17.84-7.93
		c-5.23-5.29-7.84-11.38-7.84-18.28l0.42-4.14c0.92-6.16,3.96-11.33,9.13-15.52C391.6,121.98,397.36,119.88,403.73,119.88z
		 M404.35,134.96h-0.83c-3.34,0-6.1,1.18-8.28,3.55c-2.18,2.37-3.27,5.1-3.27,8.2c0,1.18,0.23,2.37,0.7,3.55
		c0.46,1.18,1.11,2.41,1.95,3.69c1.39,1.37,2.83,2.35,4.31,2.94c1.48,0.59,3.2,0.89,5.15,0.89h3.76c2.32-0.74,4.1-2.12,5.36-4.15
		c1.25-2.03,1.88-4.2,1.88-6.5c0-3.13-0.95-5.95-2.85-8.44C410.31,136.21,407.69,134.96,404.35,134.96z"/>
	<path class="st2" d="M463.05,119.88c7.19,0,13.46,2.34,18.81,7.04c5.35,4.69,8.02,10.49,8.02,17.38v26.77h-14.39v-3.46
		c-1.95,1.38-4.13,2.47-6.55,3.25c-2.42,0.78-4.79,1.18-7.11,1.18c-3.81,0-7.43-0.87-10.87-2.62c-3.44-1.75-6.41-4.32-8.92-7.72
		c-3.25-4.87-4.88-10.07-4.88-15.59c0-5.52,1.45-10.51,4.36-14.97c2.91-4.46,6.99-7.47,12.24-9.04
		C456.92,120.62,460.01,119.88,463.05,119.88z M463.47,135.24c-3.23,0-5.97,1.21-8.23,3.64c-2.26,2.43-3.39,5.2-3.39,8.32
		c0,2.29,0.79,4.58,2.38,6.88c2.61,3.03,5.6,4.54,8.96,4.54c2.71,0,5.25-0.92,7.63-2.75c2.38-1.83,3.94-4.17,4.69-7.01v-1.93
		c0-2.93-1.27-5.62-3.8-8.04C469.16,136.45,466.42,135.24,463.47,135.24z"/>
	<path class="st2" d="M515.64,118.64h3.04c4.89,0,9.77,0.97,14.66,2.91v14.66c-1.75-1.47-3.71-2.7-5.88-3.67
		c-2.17-0.97-4.4-1.45-6.71-1.45c-2.21,0-4.29,0.6-6.23,1.79c-0.65,0.83-0.97,1.56-0.97,2.21c0,1.66,1.61,3.06,4.84,4.21
		c3.23,1.15,6.27,2.53,9.13,4.13c2.86,1.61,4.93,3.84,6.23,6.69c0.64,2.02,0.97,4.28,0.97,6.76c0,5.15-2.01,9.12-6.02,11.93
		c-4.01,2.8-8.74,4.2-14.18,4.2c-2.68,0-5.33-0.37-7.95-1.1c-2.63-0.73-4.91-1.83-6.85-3.3v-13.87c2.3,1.53,4.63,2.79,6.99,3.77
		c2.35,0.99,4.68,1.48,6.99,1.48c1.01,0,1.89-0.09,2.63-0.27c0.74-0.18,1.66-0.6,2.77-1.24c1.11-0.64,1.66-1.56,1.66-2.76v-0.69
		c-0.46-0.74-1.06-1.24-1.8-1.52l-11.62-4.55c-2.68-1.19-4.73-2.96-6.16-5.31c-1.43-2.34-2.14-4.85-2.14-7.52
		c0-4.96,1.75-9.19,5.26-12.68C507.52,120.71,511.3,119.1,515.64,118.64z"/>
</g>
<path class="st2" d="M472.1,106.02c0,4.47-3.62,8.09-8.09,8.09c-4.47,0-8.09-3.62-8.09-8.09s8.09-13.54,8.09-13.54
	S472.1,101.55,472.1,106.02z"/>
</svg>
